<?xml version="1.0" encoding="utf-8"?>
<!-- Svg Vector Icons : http://www.onlinewebfonts.com/icon -->
<!DOCTYPE svg PUBLIC "-//W3C//DTD SVG 1.1//EN" "http://www.w3.org/Graphics/SVG/1.1/DTD/svg11.dtd">
<svg version="1.1" xmlns="http://www.w3.org/2000/svg" xmlns:xlink="http://www.w3.org/1999/xlink" x="0px" y="0px" viewBox="0 0 1000 1000" enable-background="new 0 0 1000 1000" xml:space="preserve">
<metadata> Svg Vector Icons : http://www.onlinewebfonts.com/icon </metadata>
<g><g transform="translate(0.000000,511.000000) scale(0.100000,-0.100000)"><path d="M4577.1,4985.8c-48.1-16.7-125.5-56.5-169.4-87.8c-190.3-140.1-276-307.4-294.8-570.8l-12.5-175.6l-1829.6-761.1C1265,2974.3,403.6,2604.2,357.6,2572.8c-92-64.8-209.1-240.5-242.5-370.1c-12.5-46-18.8-144.3-12.5-219.6c8.4-121.3,152.6-480.9,1321.5-3299.5C2546.8-4022,2749.6-4492.5,2818.6-4571.9c177.7-200.7,483-271.8,748.6-173.5c75.3,29.3,1055.9,434.9,2180.8,901.2l2042.9,851h790.4h788.3l125.4,58.5c200.7,96.2,336.6,271.8,384.7,506c18.8,85.7,23,974.4,18.8,3533.7l-6.3,3418.7l-46,98.3c-56.4,125.5-198.6,265.5-330.3,332.5l-104.6,50.2l-2373.2,4.2C5118.6,5010.9,4648.2,5006.7,4577.1,4985.8z M9453.2,4787.1c104.6-46,211.2-165.2,240.5-267.6c16.7-56.5,20.9-1070.6,16.7-3529.5l-6.3-3450l-60.6-108.7c-71.1-129.6-173.6-204.9-315.7-236.3c-71.1-14.6-830.1-16.7-2419.2-6.3l-2312.6,16.7l-92,62.7c-48.1,35.5-112.9,106.6-142.2,156.8l-52.3,94.1l-6.3,3450c-4.2,2525.8,0,3473.1,18.8,3535.8c31.4,115,121.3,223.7,232.1,278.1l89.9,43.9h2362.8C9246.1,4826.9,9373.7,4824.8,9453.2,4787.1z M4110.8,2526.8c0-782-4.2-1421.8-6.3-1421.8c-4.2,0-148.5,75.3-319.9,167.3c-309.5,167.3-382.6,190.3-420.3,142.2c-12.5-14.6-165.2-506-338.7-1091.5c-286.5-953.5-315.7-1066.4-286.5-1095.6c16.7-16.7,330.4-194.5,696.3-391l664.9-359.6l10.4-499.7c10.5-468.4,12.5-506,58.5-587.5c104.6-196.6,255.1-317.8,460-374.3c104.6-27.2,284.4-29.3,1384.2-18.8c924.2,8.4,1254.6,6.3,1229.4-10.4c-20.9-12.5-886.5-376.4-1923.7-809.2c-1741.7-723.5-1898.6-784.1-2013.6-786.2c-207-4.2-340.8,87.8-437,299c-27.2,62.7-623.1,1492.9-1321.5,3178.2C357.6,1734.4,276,1939.3,276,2056.4c-2.1,100.4,10.4,144.3,56.4,225.8c33.5,54.4,89.9,119.2,125.5,142.2c58.6,37.6,3598.5,1520.1,3638.2,1522.2C4104.5,3948.7,4110.8,3308.8,4110.8,2526.8z M3809.7,1050.6l301.1-161V-216.5v-1108.2l-87.8,52.3c-50.2,27.2-301.1,165.2-560.4,303.2c-259.3,140.1-487.2,265.6-506,280.2c-33.4,25.1-16.7,87.8,194.5,790.4c332.5,1106.1,332.5,1108.2,345,1108.2C3504.4,1209.5,3644.5,1138.4,3809.7,1050.6z"/><path d="M4993.2,4425.4c-35.5-43.9-319.9-1166.7-307.4-1210.7c16.7-48.1,104.6-75.3,144.3-41.8c14.6,12.5,43.9,79.5,62.7,148.5c39.7,138,48.1,142.2,223.7,112.9c71.1-12.5,77.3-18.8,110.8-135.9c27.2-100.4,43.9-125.5,85.7-135.9c58.5-14.6,115,20.9,115,73.2c2.1,71.1-280.2,1143.8-309.5,1179.3C5081,4456.8,5024.5,4460.9,4993.2,4425.4z M5127,3693.6l14.6-79.4h-87.8c-46,0-85.7,6.3-85.7,12.5c0,18.8,62.7,265.5,77.4,301.1C5058,3961.2,5106.1,3827.4,5127,3693.6z"/><path d="M6237.3,2052.2c-401.4-401.5-756.9-767.4-792.5-817.5C5200.2,881.2,5244.1,343.9,5541,49.1c278.1-273.9,729.7-334.6,1091.5-146.4l133.8,71.1V-89c0-142.2-140.1-286.4-296.9-305.3c-131.7-16.7-142.2-33.4-142.2-207c0-129.6,6.2-156.8,39.7-175.6c62.7-33.5,1267.1-29.3,1292.2,6.3c12.5,12.5,27.2,83.6,33.4,154.7c12.6,150.5-18.8,215.4-106.6,215.4c-87.8,2.1-223.7,73.2-276,144.3c-25.1,37.7-50.2,104.6-56.5,148.5l-12.5,83.6l135.9-71.1c457.9-238.4,1041.3-75.3,1250.4,351.3c135.9,276,131.7,570.8-10.5,859.4c-64.8,131.7-142.2,217.5-830.1,905.4c-418.2,416.1-773.6,756.9-790.3,756.9C6979.6,2777.7,6638.8,2451.5,6237.3,2052.2z M8397.2,1134.3c94.1-131.7,135.9-286.5,135.9-489.3c0-152.6-8.4-192.4-58.6-286.5c-75.3-144.3-184-250.9-326.2-317.8C8048-5.3,8002-13.7,7832.7-13.7c-184,0-211.2,6.3-338.7,69c-92,46-167.3,100.4-217.4,161c-77.4,96.2-142.2,119.2-192.4,69c-16.7-16.7-25.1-96.2-25.1-225.8c0-165.2,8.4-215.4,50.2-303.2c60.6-129.6,179.8-244.6,311.5-303.2c54.4-25.1,98.3-48.1,98.3-52.3c0-6.3-225.8-10.4-501.8-10.4c-276,0-501.8,6.3-499.7,16.7c0,8.4,56.4,41.8,123.4,73.2c133.8,62.7,238.4,175.6,284.4,303.2c35.5,100.4,37.7,468.4,4.2,501.8c-48.1,48.1-104.5,25.1-194.4-75.3c-60.7-66.9-138-123.4-223.8-163.1c-115-52.3-154.7-60.6-330.3-60.6c-238.4,0-340.8,39.7-499.7,188.2c-146.4,135.9-200.7,278.1-200.7,522.7c0,326.2-23,296.9,802.9,1124.9l723.5,725.6l664.9-662.8C8037.6,1519,8363.8,1182.3,8397.2,1134.3z"/><path d="M8595.9-1174.1c-35.6-39.7-33.4-58.5,112.9-621c81.5-317.8,158.9-591.7,173.5-606.4c35.6-43.9,119.2-33.4,142.2,20.9c10.5,25.1,62.7,215.4,115,422.4c50.2,207,112.9,441.2,135.9,522.7c56.4,198.6,54.4,257.2-10.5,286.5c-71.1,31.4-115-10.4-156.8-156.8l-33.4-108.7l-129.7-6.3l-127.5-6.3l-33.4,117.1C8731.8-1136.5,8671.1-1090.5,8595.9-1174.1z M9024.5-1638.3c0-14.6-18.8-92-39.7-173.5l-37.6-146.4l-33.4,115c-71.1,242.5-71.1,230,25.1,230C8993.2-1613.2,9024.5-1621.6,9024.5-1638.3z"/><path d="M980.7,2232c-131.7-39.7-257.2-221.6-257.2-372.2c0-87.8,236.3-635.6,307.4-715.1c138-152.6,326.2-179.8,489.3-71.1c215.4,142.2,215.4,464.2,0,606.4c-146.4,98.3-307.4,87.8-441.2-23l-60.6-52.3l-33.5,75.3c-96.2,232.1-87.8,303.2,43.9,357.6c100.4,41.8,169.4,18.8,230-77.4c56.5-89.9,108.7-102.5,161-43.9c46,50.2,43.9,79.5-6.3,158.9C1336.1,2200.6,1127,2278,980.7,2232z M1444.8,1519c43.9-37.6,54.4-66.9,56.5-140.1c2.1-119.2-71.1-190.3-188.2-190.3c-92,2.1-140.1,33.5-171.5,112.9c-33.5,92-25.1,138,39.7,202.8C1258.7,1581.7,1365.4,1585.9,1444.8,1519z"/></g></g>
</svg>